<?xml version="1.0" encoding="UTF-8" standalone="no"?>
<svg
   xmlns:dc="http://purl.org/dc/elements/1.1/"
   xmlns:cc="http://creativecommons.org/ns#"
   xmlns:rdf="http://www.w3.org/1999/02/22-rdf-syntax-ns#"
   xmlns:svg="http://www.w3.org/2000/svg"
   xmlns="http://www.w3.org/2000/svg"
   viewBox="0 0 26.666667 26.666665"
   height="26.666666"
   width="26.666666"
   xml:space="preserve"
   id="svg10"
   version="1.1"><metadata
     id="metadata16"><rdf:RDF><cc:Work
         rdf:about=""><dc:format>image/svg+xml</dc:format><dc:type
           rdf:resource="http://purl.org/dc/dcmitype/StillImage" /><dc:title></dc:title></cc:Work></rdf:RDF></metadata><defs
     id="defs14"><clipPath
       id="clipPath106"
       clipPathUnits="userSpaceOnUse"><path
         id="path104"
         d="M 0,773 H 1366 V 0 H 0 Z" /></clipPath><clipPath
       id="clipPath136"
       clipPathUnits="userSpaceOnUse"><path
         id="path134"
         d="M 0,773 H 1366 V 0 H 0 Z" /></clipPath><clipPath
       id="clipPath162"
       clipPathUnits="userSpaceOnUse"><path
         id="path160"
         d="M 0,773 H 1366 V 0 H 0 Z" /></clipPath><clipPath
       id="clipPath212"
       clipPathUnits="userSpaceOnUse"><path
         id="path210"
         d="m 1089.62,243 h 197 V 46 h -197 z" /></clipPath></defs><g
     transform="matrix(1.3333333,0,0,-1.3333333,-33.333333,821.80398)"
     id="g18"><path
       id="path176"
       style="fill:#000000;fill-opacity:1;fill-rule:nonzero;stroke:none"
       d="m 34.112,608.116 h 1.791 v -6.554 h -1.791 z m -0.183,1.995 c 0,0.57 0.493,1.032 1.071,1.032 0.592,0 1.071,-0.462 1.071,-1.032 0,-0.57 -0.479,-1.031 -1.071,-1.031 -0.578,0 -1.071,0.461 -1.071,1.031 M 35,614.924 c -4.726,0 -8.571,-3.845 -8.571,-8.571 0,-4.727 3.845,-8.572 8.571,-8.572 4.726,0 8.571,3.845 8.571,8.572 0,4.726 -3.845,8.571 -8.571,8.571 m 0,-18.571 c -5.514,0 -10,4.485 -10,10 0,5.513 4.486,10 10,10 5.514,0 10,-4.487 10,-10 0,-5.515 -4.486,-10 -10,-10" /></g></svg>