<?xml version="1.0" encoding="UTF-8" standalone="no"?>
<!-- Created with Inkscape (http://www.inkscape.org/) -->

<svg
   xmlns:dc="http://purl.org/dc/elements/1.1/"
   xmlns:cc="http://creativecommons.org/ns#"
   xmlns:rdf="http://www.w3.org/1999/02/22-rdf-syntax-ns#"
   xmlns:svg="http://www.w3.org/2000/svg"
   xmlns="http://www.w3.org/2000/svg"
   xmlns:sodipodi="http://sodipodi.sourceforge.net/DTD/sodipodi-0.dtd"
   xmlns:inkscape="http://www.inkscape.org/namespaces/inkscape"
   version="1.1"
   id="svg10"
   xml:space="preserve"
   width="26.666666"
   height="24.223732"
   viewBox="0 0 26.666667 24.223731"
   sodipodi:docname="icons.svg"
   inkscape:version="0.92.3 (2405546, 2018-03-11)"><metadata
     id="metadata16"><rdf:RDF><cc:Work
         rdf:about=""><dc:format>image/svg+xml</dc:format><dc:type
           rdf:resource="http://purl.org/dc/dcmitype/StillImage" /><dc:title></dc:title></cc:Work></rdf:RDF></metadata><defs
     id="defs14"><clipPath
       clipPathUnits="userSpaceOnUse"
       id="clipPath106"><path
         d="M 0,773 H 1366 V 0 H 0 Z"
         id="path104"
         inkscape:connector-curvature="0" /></clipPath><clipPath
       clipPathUnits="userSpaceOnUse"
       id="clipPath136"><path
         d="M 0,773 H 1366 V 0 H 0 Z"
         id="path134"
         inkscape:connector-curvature="0" /></clipPath><clipPath
       clipPathUnits="userSpaceOnUse"
       id="clipPath162"><path
         d="M 0,773 H 1366 V 0 H 0 Z"
         id="path160"
         inkscape:connector-curvature="0" /></clipPath><clipPath
       clipPathUnits="userSpaceOnUse"
       id="clipPath212"><path
         d="m 1089.62,243 h 197 V 46 h -197 z"
         id="path210"
         inkscape:connector-curvature="0" /></clipPath></defs><sodipodi:namedview
     pagecolor="#ffffff"
     bordercolor="#666666"
     borderopacity="1"
     objecttolerance="10"
     gridtolerance="10"
     guidetolerance="10"
     inkscape:pageopacity="0"
     inkscape:pageshadow="2"
     inkscape:window-width="1920"
     inkscape:window-height="1017"
     id="namedview12"
     showgrid="false"
     fit-margin-top="0"
     fit-margin-left="0"
     fit-margin-right="0"
     fit-margin-bottom="0"
     inkscape:zoom="0.82276837"
     inkscape:cx="523.6493"
     inkscape:cy="-356.69025"
     inkscape:window-x="-8"
     inkscape:window-y="-8"
     inkscape:window-maximized="1"
     inkscape:current-layer="g18" /><g
     id="g18"
     inkscape:groupmode="layer"
     inkscape:label="itsb_p3_design_v002"
     transform="matrix(1.3333333,0,0,-1.3333333,-33.333333,896.24731)"><g
       id="g246"><g
         transform="translate(25,663.3896)"
         id="g164"><path
           inkscape:connector-curvature="0"
           id="path166"
           style="fill:#fcb040;fill-opacity:1;fill-rule:nonzero;stroke:none"
           d="M 0,0 9.948,8.167 20,-0.104 H 18.325 L 9.948,6.492 1.989,0 Z" /></g><g
         transform="translate(27.9321,662.7617)"
         id="g168"><path
           inkscape:connector-curvature="0"
           id="path170"
           style="fill:#fcb040;fill-opacity:1;fill-rule:nonzero;stroke:none"
           d="m 0,0 6.963,5.707 6.754,-5.498 -0.052,-8.953 -5.079,0.053 v 5.235 H 5.34 V -8.639 L 0,-8.691 Z" /></g><g
         transform="translate(37.5654,672.1855)"
         id="g172"><path
           inkscape:connector-curvature="0"
           id="path174"
           style="fill:#fcb040;fill-opacity:1;fill-rule:nonzero;stroke:none"
           d="m 0,0 2.461,-0.052 0.157,-3.77 -2.722,2.147 z" /></g></g><path
       d="m 34.112,608.116 h 1.791 v -6.554 h -1.791 z m -0.183,1.995 c 0,0.57 0.493,1.032 1.071,1.032 0.592,0 1.071,-0.462 1.071,-1.032 0,-0.57 -0.479,-1.031 -1.071,-1.031 -0.578,0 -1.071,0.461 -1.071,1.031 M 35,614.924 c -4.726,0 -8.571,-3.845 -8.571,-8.571 0,-4.727 3.845,-8.572 8.571,-8.572 4.726,0 8.571,3.845 8.571,8.572 0,4.726 -3.845,8.571 -8.571,8.571 m 0,-18.571 c -5.514,0 -10,4.485 -10,10 0,5.513 4.486,10 10,10 5.514,0 10,-4.487 10,-10 0,-5.515 -4.486,-10 -10,-10"
       style="fill:#ffffff;fill-opacity:1;fill-rule:nonzero;stroke:none"
       id="path176"
       inkscape:connector-curvature="0" /><g
       id="g178"
       transform="translate(31.8267,549.7593)"><path
         d="m 0,0 c -2.53,0 -4.58,2.097 -4.58,4.625 0,2.53 2.05,4.58 4.58,4.58 2.53,0 4.675,-2.05 4.675,-4.58 C 4.675,2.095 2.53,0 0,0 m 12.92,-6.765 -4.133,4.133 c -0.337,0.339 -0.886,0.339 -1.224,0 l -2.486,2.508 c 1.078,1.215 1.871,2.839 1.871,4.589 0,3.803 -3.085,6.887 -6.886,6.887 -3.802,0 -6.889,-3.082 -6.889,-6.886 0,-3.801 3.084,-6.884 6.887,-6.884 1.37,0 2.728,0.466 3.798,1.154 l 2.48,-2.591 c -0.34,-0.34 -0.34,-0.887 0,-1.224 l 4.134,-4.133 c 0.338,-0.336 0.886,-0.336 1.223,0 l 1.223,1.224 c 0.34,0.336 0.34,0.884 0.002,1.223"
         style="fill:#ffffff;fill-opacity:1;fill-rule:nonzero;stroke:none"
         id="path180"
         inkscape:connector-curvature="0" /></g><g
       id="g190"
       transform="translate(35,434.0967)"><path
         d="m 0,0 c -1.787,0 -3.235,1.448 -3.235,3.235 0,1.786 1.448,3.236 3.235,3.236 1.787,0 3.235,-1.45 3.235,-3.236 C 3.235,1.448 1.787,0 0,0 m 0,8.623 c -5.79,0 -10,-5.292 -10,-5.292 0,0 3.684,-5.483 10,-5.483 5.79,0 10,5.291 10,5.291 0,0 -3.684,5.484 -10,5.484"
         style="fill:#ffffff;fill-opacity:1;fill-rule:nonzero;stroke:none"
         id="path192"
         inkscape:connector-curvature="0" /></g><g
       id="g194"
       transform="translate(44,493)"><path
         d="m 0,0 c 0,-4.971 -4.029,-9 -9,-9 -4.971,0 -9,4.029 -9,9 0,4.971 4.029,9 9,9 4.971,0 9,-4.029 9,-9"
         style="fill:#ffffff;fill-opacity:1;fill-rule:nonzero;stroke:none"
         id="path196"
         inkscape:connector-curvature="0" /></g></g></svg>