<?xml version="1.0" encoding="UTF-8" standalone="no"?>
<!-- Created with Inkscape (http://www.inkscape.org/) -->

<svg
   xmlns:dc="http://purl.org/dc/elements/1.1/"
   xmlns:cc="http://creativecommons.org/ns#"
   xmlns:rdf="http://www.w3.org/1999/02/22-rdf-syntax-ns#"
   xmlns:svg="http://www.w3.org/2000/svg"
   xmlns="http://www.w3.org/2000/svg"
   xmlns:sodipodi="http://sodipodi.sourceforge.net/DTD/sodipodi-0.dtd"
   xmlns:inkscape="http://www.inkscape.org/namespaces/inkscape"
   version="1.1"
   id="svg10"
   xml:space="preserve"
   width="26.667"
   height="27.754665"
   viewBox="0 0 26.667001 27.754664"
   sodipodi:docname="search.svg"
   inkscape:version="0.92.3 (2405546, 2018-03-11)"><metadata
     id="metadata16"><rdf:RDF><cc:Work
         rdf:about=""><dc:format>image/svg+xml</dc:format><dc:type
           rdf:resource="http://purl.org/dc/dcmitype/StillImage" /><dc:title></dc:title></cc:Work></rdf:RDF></metadata><defs
     id="defs14"><clipPath
       clipPathUnits="userSpaceOnUse"
       id="clipPath106"><path
         d="M 0,773 H 1366 V 0 H 0 Z"
         id="path104"
         inkscape:connector-curvature="0" /></clipPath><clipPath
       clipPathUnits="userSpaceOnUse"
       id="clipPath136"><path
         d="M 0,773 H 1366 V 0 H 0 Z"
         id="path134"
         inkscape:connector-curvature="0" /></clipPath><clipPath
       clipPathUnits="userSpaceOnUse"
       id="clipPath162"><path
         d="M 0,773 H 1366 V 0 H 0 Z"
         id="path160"
         inkscape:connector-curvature="0" /></clipPath><clipPath
       clipPathUnits="userSpaceOnUse"
       id="clipPath212"><path
         d="m 1089.62,243 h 197 V 46 h -197 z"
         id="path210"
         inkscape:connector-curvature="0" /></clipPath></defs><sodipodi:namedview
     pagecolor="#000000"
     bordercolor="#666666"
     borderopacity="1"
     objecttolerance="10"
     gridtolerance="10"
     guidetolerance="10"
     inkscape:pageopacity="0"
     inkscape:pageshadow="2"
     inkscape:window-width="1920"
     inkscape:window-height="1017"
     id="namedview12"
     showgrid="false"
     fit-margin-top="0"
     fit-margin-left="0"
     fit-margin-right="0"
     fit-margin-bottom="0"
     inkscape:zoom="0.82276837"
     inkscape:cx="393.60095"
     inkscape:cy="-205.06039"
     inkscape:window-x="-8"
     inkscape:window-y="-8"
     inkscape:window-maximized="1"
     inkscape:current-layer="g18" /><g
     id="g18"
     inkscape:groupmode="layer"
     inkscape:label="search"
     transform="matrix(1.3333333,0,0,-1.3333333,-33.332933,748.14838)"><path
       inkscape:connector-curvature="0"
       id="path180"
       style="fill:#000000;fill-opacity:1;fill-rule:nonzero;stroke:none"
       d="m 31.8267,549.7593 c -2.53,0 -4.58,2.097 -4.58,4.625 0,2.53 2.05,4.58 4.58,4.58 2.53,0 4.675,-2.05 4.675,-4.58 0,-2.53 -2.145,-4.625 -4.675,-4.625 m 12.92,-6.765 -4.133,4.133 c -0.337,0.339 -0.886,0.339 -1.224,0 l -2.486,2.508 c 1.078,1.215 1.871,2.839 1.871,4.589 0,3.803 -3.085,6.887 -6.886,6.887 -3.802,0 -6.889,-3.082 -6.889,-6.886 0,-3.801 3.084,-6.884 6.887,-6.884 1.37,0 2.728,0.466 3.798,1.154 l 2.48,-2.591 c -0.34,-0.34 -0.34,-0.887 0,-1.224 l 4.134,-4.133 c 0.338,-0.336 0.886,-0.336 1.223,0 l 1.223,1.224 c 0.34,0.336 0.34,0.884 0.002,1.223" /></g></svg>