<?xml version="1.0" encoding="UTF-8" standalone="no"?>
<svg
   xmlns:dc="http://purl.org/dc/elements/1.1/"
   xmlns:cc="http://creativecommons.org/ns#"
   xmlns:rdf="http://www.w3.org/1999/02/22-rdf-syntax-ns#"
   xmlns:svg="http://www.w3.org/2000/svg"
   xmlns="http://www.w3.org/2000/svg"
   viewBox="0 0 26.666667 14.366665"
   height="14.366666"
   width="26.666666"
   xml:space="preserve"
   id="svg10"
   version="1.1"><metadata
     id="metadata16"><rdf:RDF><cc:Work
         rdf:about=""><dc:format>image/svg+xml</dc:format><dc:type
           rdf:resource="http://purl.org/dc/dcmitype/StillImage" /><dc:title></dc:title></cc:Work></rdf:RDF></metadata><defs
     id="defs14"><clipPath
       id="clipPath106"
       clipPathUnits="userSpaceOnUse"><path
         id="path104"
         d="M 0,773 H 1366 V 0 H 0 Z" /></clipPath><clipPath
       id="clipPath136"
       clipPathUnits="userSpaceOnUse"><path
         id="path134"
         d="M 0,773 H 1366 V 0 H 0 Z" /></clipPath><clipPath
       id="clipPath162"
       clipPathUnits="userSpaceOnUse"><path
         id="path160"
         d="M 0,773 H 1366 V 0 H 0 Z" /></clipPath><clipPath
       id="clipPath212"
       clipPathUnits="userSpaceOnUse"><path
         id="path210"
         d="m 1089.62,243 h 197 V 46 h -197 z" /></clipPath></defs><g
     transform="matrix(1.3333333,0,0,-1.3333333,-33.333333,590.29292)"
     id="g18"><path
       d="m 35,434.0967 c -1.787,0 -3.235,1.448 -3.235,3.235 0,1.786 1.448,3.236 3.235,3.236 1.787,0 3.235,-1.45 3.235,-3.236 0,-1.787 -1.448,-3.235 -3.235,-3.235 m 0,8.623 c -5.79,0 -10,-5.292 -10,-5.292 0,0 3.684,-5.483 10,-5.483 5.79,0 10,5.291 10,5.291 0,0 -3.684,5.484 -10,5.484"
       style="fill:#fcb040;fill-opacity:1;fill-rule:nonzero;stroke:none"
       id="path192" /></g></svg>